<svg id="Capa_1" enable-background="new 0 0 512 512" height="512" viewBox="0 0 512 512" width="512" xmlns="http://www.w3.org/2000/svg"><g><path d="m486.395 275.395c-2.296 1.157-25.419 25.964-59.041 25.952-25.338-.009-41.045-13.251-59.806-21.352-22.26-11.133-52.943-11.558-78.254 1.428l-3.395-27.156c13.343-22.555 32.763-40.737 55.809-52.639 13.812 24 39.28 39.373 67.925 39.373 21.006 0 40.752-8.174 55.605-23.027l11.367-11.367c5.859-5.859 5.859-15.352 0-21.211s-15.352-5.859-21.211 0l-11.367 11.367c-9.184 9.183-21.401 14.237-34.394 14.237-16.122 0-30.659-7.826-39.595-20.407.456-.119.861-.366 1.318-.482 29.239-7.295 49.644-33.442 49.644-63.574 0-19.599 15.938-35.537 35.537-35.537h9.463c8.291 0 15-6.709 15-15s-6.709-15-15-15h-9.463c-36.138 0-65.537 29.399-65.537 65.537 0 16.333-11.074 30.513-26.924 34.482-32.397 8.104-61.371 25.849-83.56 50.178l-7.78-62.236c33.296-7.647 58.264-37.38 58.264-72.961 0-8.276 6.724-15 15-15 8.291 0 15-6.709 15-15s-6.709-15-15-15c-24.814 0-45 20.186-45 45 0 22.883-17.228 41.622-39.359 44.431l-3.825-3.825c-10.693-10.694-16.816-25.489-16.816-40.606s6.123-30.912 16.816-41.605l8.789-8.789c5.859-5.859 5.859-15.352 0-21.211s-15.352-5.859-21.211 0l-8.789 8.789c-16.274 16.274-25.605 39.803-25.605 62.816s9.331 45.542 25.605 61.816l3.602 3.602-1.994 15.945c-24.294-23.346-55.99-36.363-89.791-36.363-15.117 0-27.422-12.305-27.422-27.422 0-7.222 2.93-14.297 8.027-19.395l17.578-17.578c5.859-5.859 5.859-15.352 0-21.211s-15.352-5.859-21.211 0l-17.578 17.578c-10.839 10.841-16.816 25.269-16.816 40.606 0 9.981 2.789 19.235 7.288 27.422h-22.288c-8.276 0-15-6.724-15-15 0-8.291-6.709-15-15-15s-15 6.709-15 15c0 24.814 20.186 45 45 45h72.422c26.675 0 51.753 10.386 70.605 29.238l14.513 14.513-12.264 98.123c-19.906-14.068-43.475-21.874-68.342-21.874h-1.934v-15c0-24.814-20.186-45-45-45-8.291 0-15 6.709-15 15s6.709 15 15 15c8.276 0 15 6.724 15 15v15h-7.925c-17.139 0-32.563-9.536-40.239-24.873-10.825-21.665-33.607-35.127-57.836-35.127-8.291 0-15 6.709-15 15s6.709 15 15 15c12.788 0 25.287 7.104 31 18.545 8.093 16.166 21.645 27.825 37.511 34.68-15.126 22.59-40.783 36.775-68.511 36.775-8.291 0-15 6.709-15 15s6.709 15 15 15c41.96 0 80.649-22.985 100.097-60h37.837c37.739 0 58.636 23.539 63.94 27.085l-15.176 122.406c-2.256 17.959-17.593 31.509-35.698 31.509h-30c-8.291 0-15 6.709-15 15s6.709 15 15 15h240c8.291 0 15-6.709 15-15s-6.709-15-15-15h-30c-18.105 0-33.442-13.55-35.698-31.509l-16.829-135.641c10.845-9.142 25.051-13.669 39.208-12.997 7.813 50.186 51.312 89.147 103.319 89.147 8.291 0 15-6.709 15-15s-6.709-15-15-15c-31.54 0-58.705-20.101-69.67-48.067 7.833 3.152 28.488 18.067 61.452 18.067 49.828 0 76.824-32.355 79.823-34.395 5.859-5.859 5.859-15.352 0-21.211s-15.351-5.859-21.21.001z"/></g></svg>