<svg id="Layer_2" height="512" viewBox="0 0 128 128" width="512" xmlns="http://www.w3.org/2000/svg" data-name="Layer 2"><circle cx="64" cy="64" fill="#23a8fe" r="35"/><path d="m37.921 67.423-5.04-4.032-2.15.47-1.7-1.108c-.014.415-.031.829-.031 1.247a34.842 34.842 0 0 0 7.137 21.175l3.863-4.916 8.605-1.007.066-7.6-4.1-5.242z" fill="#8affc7"/><path d="m92.33 49.4 4.811 3.35a35 35 0 0 0 -42.251-22.545l.416 1.858 15.735 4.176 11.459 4.748-6.932 3.176-11.698-1.289-3.57-3.574-5.9 2.324-7.686 7.686v10.141l5.183 5.184h6.614l7.776 7.775v9.921l5.761 5.769 7.373-7.373v-4.29l3.4-3.4v-6.77l5.373-5.374-1.184-6.673-7.34-4.744 7.03-3.087z" fill="#8affc7"/><g fill="#fee55a"><path d="m64 112.419a48.466 48.466 0 0 1 -48.387-47.172h4.137l-9-11.75-9 11.75h4.032a58.232 58.232 0 0 0 110.494 24.429l-6.864-8.96a48.464 48.464 0 0 1 -45.412 31.703z"/><path d="m122.218 62.753a58.232 58.232 0 0 0 -110.494-24.429l6.864 8.96a48.392 48.392 0 0 1 93.8 15.469h-4.138l9 11.75 9-11.75z"/></g></svg>