<svg id="Capa_1" enable-background="new 0 0 512.379 512.379" height="512" viewBox="0 0 512.379 512.379" width="512" xmlns="http://www.w3.org/2000/svg"><g><g><g><g><g><circle cx="255.824" cy="66.695" r="8.735"/></g></g><g><g><path d="m245.806 44.844c-2.661 0-5.237-1.419-6.597-3.921-1.978-3.64-.63-8.193 3.01-10.17 4.232-2.299 9.028-3.515 13.869-3.515 4.563 0 9.112 1.086 13.157 3.141 3.693 1.875 5.167 6.39 3.292 10.083-1.876 3.693-6.392 5.167-10.083 3.291-1.979-1.005-4.121-1.515-6.366-1.515-2.381 0-4.639.57-6.709 1.695-1.138.617-2.364.911-3.573.911z"/></g></g><g><g><path d="m287.88 23.825c-1.323 0-2.663-.35-3.878-1.085-8.362-5.064-17.98-7.74-27.814-7.74s-19.451 2.676-27.812 7.738c-3.545 2.145-8.155 1.012-10.301-2.531-2.145-3.543-1.012-8.155 2.531-10.3 10.706-6.481 23.009-9.907 35.582-9.907s24.877 3.426 35.583 9.908c3.543 2.146 4.676 6.757 2.531 10.3-1.409 2.329-3.885 3.617-6.422 3.617z"/></g></g></g><g><g><path d="m326.911 369.126-17.094-29.607c-2.07-3.587-6.66-4.816-10.245-2.745-3.587 2.071-4.816 6.658-2.745 10.245l17.094 29.607c.696 1.207.299 2.255 0 2.773s-1.009 1.386-2.375 1.386l-23.289-.082.366-.31c3.164-2.673 3.563-7.405.89-10.569-2.675-3.164-7.407-3.562-10.569-.889-3.92 3.312-7.84 6.624-11.761 9.936-1.51 1.276-3.156 2.413-4.506 3.869-1.804 1.946-2.717 4.267-2.176 6.919.292 1.431 1.175 2.967 2.243 3.961.051.047 15.826 13.919 15.826 13.919 1.425 1.251 3.189 1.866 4.947 1.866 2.082 0 4.155-.863 5.638-2.55 2.733-3.112 2.427-7.851-.685-10.584l-.647-.569 23.697.083c6.425 0 12.18-3.322 15.392-8.886s3.212-12.208-.001-17.773z"/></g><g><path d="m232.882 380.786h-32.022c-1.393 0-2.103-.869-2.401-1.386-.296-.512-.688-1.544-.021-2.734l12.241-20.418s.164.904.164.904c.312 1.721 1.229 3.299 2.572 4.42 5.294 4.418 13.406-.367 12.188-7.093l-3.719-20.534c-.483-2.667-2.589-5.136-5.322-5.744-2.239-.498-4.63.033-6.758.757-2.301.782-4.603 1.564-6.904 2.347-3.523 1.198-7.045 2.395-10.568 3.592-3.922 1.333-6.02 5.593-4.687 9.515s5.593 6.021 9.515 4.688l.396-.135-12.026 20.055c-.021.035-.042.071-.063.106-3.213 5.564-3.213 12.208 0 17.773 3.212 5.564 8.967 8.886 15.392 8.886h32.022c4.143 0 7.5-3.358 7.5-7.5s-3.357-7.499-7.499-7.499z"/></g><g><path d="m259.608 306.171c-1.495 3.863.424 8.207 4.287 9.702 0 0 19.456 7.53 19.461 7.532 2.276.881 4.905.575 6.921-.791 1.51-1.024 2.587-2.572 3.042-4.338.019-.075 4.633-20.584 4.633-20.584.906-4.042-1.634-8.053-5.676-8.96-4.036-.906-8.053 1.634-8.961 5.675l-.142.632-11.469-21.523c-.04-.075-.081-.149-.124-.223-3.213-5.564-8.967-8.887-15.392-8.887-6.374 0-12.088 3.27-15.314 8.754l-18.027 28.761c-2.2 3.51-1.139 8.138 2.371 10.338 3.51 2.199 8.138 1.139 10.338-2.372l18.091-28.862c.049-.077.096-.155.141-.233.696-1.207 1.804-1.387 2.401-1.387.585 0 1.656.172 2.354 1.309l11.414 21.42-.648-.251c-3.862-1.494-8.206.425-9.701 4.288z"/></g></g></g><path d="m371.771 98.55h-231.164c-12.457 0-22.591 10.134-22.591 22.591v107.297c0 23.175 1.097 46.62 3.259 69.682l1.275 13.597c.386 4.124 4.032 7.161 8.167 6.768 4.124-.387 7.153-4.043 6.768-8.167l-1.275-13.598c-2.119-22.599-3.193-45.573-3.193-68.282v-1.802h246.346v1.802c0 22.709-1.074 45.683-3.193 68.282l-18.166 193.776c-.368 3.923-3.617 6.882-7.558 6.882h-188.512c-3.94 0-7.189-2.958-7.558-6.882l-13.655-145.653c-.387-4.124-4.037-7.151-8.167-6.767-4.124.387-7.153 4.043-6.767 8.167l13.654 145.652c1.095 11.677 10.764 20.482 22.492 20.482h188.512c11.729 0 21.397-8.806 22.491-20.482l18.166-193.776c2.163-23.063 3.26-46.507 3.26-69.683v-107.295c0-12.456-10.133-22.591-22.591-22.591zm7.591 113.086h-246.345v-26.084h246.346v26.084zm0-41.084h-246.345v-49.411c0-4.186 3.405-7.591 7.591-7.591h55.036v15.081c0 10.659 8.672 19.331 19.331 19.331h4.965c4.143 0 7.5-3.358 7.5-7.5s-3.357-7.5-7.5-7.5h-4.965c-2.388 0-4.331-1.943-4.331-4.331v-15.081h91.092v15.081c0 2.388-1.943 4.331-4.331 4.331h-42.965c-4.143 0-7.5 3.358-7.5 7.5s3.357 7.5 7.5 7.5h42.965c10.659 0 19.331-8.672 19.331-19.331v-15.081h55.036c4.186 0 7.591 3.405 7.591 7.591v49.411z"/></g></svg>