<svg id="Layer_1" enable-background="new 0 0 512 512" height="512" viewBox="0 0 512 512" width="512" xmlns="http://www.w3.org/2000/svg"><g><g><path d="m184.75 225.359-.095.011c.049.118.079.098.095-.011z"/><path d="m256.22 496.941c-33.098-199.156-45.398-273.358-45.668-274.642l-25.327 3.003 19.2 118.56h-95.718l14.331-115.196c.768-6.168 6.034-10.82 12.25-10.82h4.912c-5.688-5.424-9.593-12.784-10.59-21.198-.162-1.368-.234-2.725-.238-4.069-16.51 2.597-29.755 15.874-31.874 32.91l-33.975 271.969c-.964 7.722 5.057 14.542 12.839 14.542 6.528 0 12.033-4.863 12.839-11.341l16.304-131.06h103.136l21.549 131.554c1.025 6.255 6.43 10.846 12.768 10.846h.499c7.992.001 14.073-7.173 12.763-15.058z"/></g><path d="m439.22 308.36c7.322-1.513 11.386-9.938 8.337-17.469l-71.696-177.777c-12.317-30.54-40.629-50.557-72.098-53.239-4.673 23.649-23.169 42.383-46.693 47.405l.674 29.509 16.138-16.69-24.446 40.379-87.636 10.39c-11.962 1.418-20.51 12.265-19.091 24.228 1.42 11.979 12.284 20.509 24.228 19.091l98.21-11.644c6.673-.791 12.609-4.615 16.09-10.363l29.961-49.489-18.676 56.321c-5.755 17.356-23.939 15.995-25.822 16.632l-7.137.846 2.573 112.722c.186 8.14 7.241 14.25 14.578 12.734 2.636-.545 5.589-1.155 8.799-1.818l-5.115 19.308c-.515 1.945-.818 3.94-.904 5.95l-5.007 117.555c-.674 15.821 11.958 29.055 27.864 29.055 14.844-.001 27.185-11.71 27.823-26.683l4.879-114.531 11.461-43.262c4.341-.897 8.714-1.801 13.082-2.703v50.087c0 2.162.252 4.316.75 6.419l25.855 109.222c3.033 12.819 14.469 21.455 27.093 21.455 17.974 0 31.291-16.771 27.143-34.294l-25.105-106.056v-58.353c9.333-1.929 17.516-3.62 23.888-4.937z"/><circle cx="244.43" cy="48.132" r="48.132"/></g></svg>