<?xml version="1.0" encoding="iso-8859-1"?>
<!-- Generator: Adobe Illustrator 19.0.0, SVG Export Plug-In . SVG Version: 6.00 Build 0)  -->
<svg version="1.1" id="Capa_1" xmlns="http://www.w3.org/2000/svg" xmlns:xlink="http://www.w3.org/1999/xlink" x="0px" y="0px"
	 viewBox="0 0 476.488 476.488" style="enable-background:new 0 0 476.488 476.488;" xml:space="preserve">
<g>
	<g>
		<path d="M276.2,200.169c-10-10.1-23.7-15.8-38-15.7c-29.7,0-53.8,24.1-53.9,53.8c0,29.7,24.1,53.8,53.8,53.8s53.8-24.1,53.9-53.8
			C292,223.969,286.3,210.269,276.2,200.169z M262.1,262.169c-13.2,13.2-34.6,13.2-47.9,0c-13.2-13.2-13.2-34.6,0-47.9
			c13.2-13.2,34.6-13.2,47.9,0c6.3,6.3,9.9,15,9.9,23.9C272.1,247.269,268.5,255.869,262.1,262.169z"/>
	</g>
</g>
<g>
	<g>
		<path d="M357.9,118.569c-31.7-31.9-74.8-49.7-119.7-49.6c-93.5,0-169.3,75.8-169.3,169.3s75.8,169.3,169.3,169.3
			s169.3-75.8,169.3-169.3C407.5,193.369,389.7,150.269,357.9,118.569z M368.4,164.969c5,8.8,9,18,12.1,27.6l-39.5-0.2
			L368.4,164.969z M278.7,94.469c8.5,2.4,16.8,5.5,24.8,9.4l-25.1,25.1L278.7,94.469z M192.1,96.169l-0.4,35.7l-24.9-24.9
			C174.9,102.669,183.4,98.969,192.1,96.169z M104.9,170.869l23.2,23.2l-32.4-0.6C98.1,185.769,101.2,178.169,104.9,170.869z
			 M94.5,279.069l34.3-0.5l-25,25C100,295.769,96.9,287.569,94.5,279.069z M192.1,380.369c-9.4-3.1-18.5-7-27.2-11.9l27.2-27.2
			V380.369z M279,381.869l-0.5-37.3l27,27C297,375.869,288.2,379.269,279,381.869z M369.4,309.669l-28.5-28.5l40.5-0.4
			C378.4,290.769,374.4,300.469,369.4,309.669z M316.8,261.269c-5.5,0-10,4.6-9.9,10.1c0,2.6,1.1,5.1,2.9,7l48.5,48.5
			c-4.3,6-9.2,11.7-14.5,17c-6.3,6.3-13.2,12.1-20.5,17.2l-48-48c-3.9-3.9-10.2-3.9-14.1,0c-1.9,1.9-3,4.5-2.9,7.2l1,65.9
			c-15.6,2.2-31.5,1.9-47.1-0.8l0.1-68.3c0-5.5-4.5-10-10-10c-2.7,0-5.2,1.1-7.1,2.9l-47.2,47.2c-13.1-10-24.4-22-33.7-35.6
			l46.2-46.2c3.9-3.9,3.9-10.2,0-14.1c-1.9-1.9-4.4-2.9-7.1-2.9h-0.2l-62.9,0.9c-2.1-15.2-1.9-30.6,0.6-45.7l61.5,1.1h0.2
			c5.5,0,10-4.5,10-10c0-2.7-1.1-5.2-2.9-7.1l-44.2-44.2c9.4-13.5,20.9-25.4,34.1-35.2l44.8,44.8c3.9,3.9,10.2,3.9,14.1,0
			c1.9-1.9,2.9-4.4,2.9-7l0.7-64.7c15.4-2.7,31.1-3,46.6-0.8l-0.5,62.8c-0.1,5.5,4.4,10,9.9,10.1c2.7,0,5.3-1,7.2-2.9l46.1-46.2
			c13.6,9.2,25.7,20.6,35.7,33.7l-47.2,47.2c-3.9,3.9-3.9,10.2,0,14.1c1.9,1.9,4.4,2.9,7,2.9l68.4,0.4c2.7,15.9,2.9,32.1,0.5,48.1
			L316.8,261.269z"/>
	</g>
</g>
<g>
	<g>
		<path d="M406.7,69.769c-44.6-44.8-105.3-69.9-168.5-69.7C106.6,0.069,0,106.669,0,238.269c0,63.2,25.1,123.8,69.8,168.4
			c93,93,243.8,93,336.9,0S499.7,162.869,406.7,69.769z M392.5,392.569c-85.2,85.2-223.4,85.2-308.6,0s-85.2-223.4,0-308.6
			s223.4-85.2,308.6,0S477.7,307.369,392.5,392.569z"/>
	</g>
</g>
<g>
</g>
<g>
</g>
<g>
</g>
<g>
</g>
<g>
</g>
<g>
</g>
<g>
</g>
<g>
</g>
<g>
</g>
<g>
</g>
<g>
</g>
<g>
</g>
<g>
</g>
<g>
</g>
<g>
</g>
</svg>
