<svg id="Capa_1" enable-background="new 0 0 512 512" height="512" viewBox="0 0 512 512" width="512" xmlns="http://www.w3.org/2000/svg"><g><path d="m212.293 420.687h87.413l-11.376-135.952c-9.352 5.952-20.435 9.418-32.32 9.421h-.01c-11.888 0-22.976-3.466-32.331-9.421z"/><path d="m37.7 303.153c15.333 31.028 52.928 43.757 83.97 28.432l99.009-48.879c-15.164-10.973-25.057-28.797-25.059-48.897 0-4.352.472-8.629 1.365-12.786l-157.863 77.935c-1.552.766-2.189 2.644-1.422 4.195z"/><path d="m474.3 303.153c.767-1.551.13-3.429-1.422-4.195l-157.862-77.934c.891 4.153 1.364 8.426 1.364 12.773.002 20.104-9.892 37.933-25.059 48.909l99.009 48.879c31.043 15.325 68.637 2.596 83.97-28.432z"/><path d="m288.912 183.197v-123.669c0-32.876-26.664-59.528-59.557-59.528-3.461 0-6.267 2.805-6.267 6.264v176.933c9.708-6.335 21.044-9.744 32.908-9.745 11.869 0 23.207 3.409 32.916 9.745z"/><path d="m256.005 264.116c16.72-.003 30.322-13.602 30.32-30.315-.001-8.096-3.156-15.708-8.884-21.432s-13.342-8.876-21.442-8.876c0 0-.002 0-.003 0-8.1.001-15.716 3.154-21.443 8.88s-8.881 13.338-8.88 21.436c.001 16.712 13.605 30.309 30.326 30.309h.006z"/><path d="m496.973 481.96h-192.139l-2.614-31.234h-92.44l-2.614 31.234h-192.139c-8.299 0-15.027 6.725-15.027 15.02s6.728 15.02 15.027 15.02h481.946c8.299 0 15.027-6.725 15.027-15.02s-6.728-15.02-15.027-15.02z"/></g></svg>